<?xml version="1.0" encoding="UTF-8"?>
<!DOCTYPE svg PUBLIC "-//W3C//DTD SVG 1.1//EN" "http://www.w3.org/Graphics/SVG/1.1/DTD/svg11.dtd">
<!-- Creator: CorelDRAW 2020 (64-Bit) -->
<svg xmlns="http://www.w3.org/2000/svg" xml:space="preserve" width="202.188mm" height="44.374mm" version="1.1" style="shape-rendering:geometricPrecision; text-rendering:geometricPrecision; image-rendering:optimizeQuality; fill-rule:evenodd; clip-rule:evenodd"
viewBox="0 0 19739.25 4332.15"
 xmlns:xlink="http://www.w3.org/1999/xlink"
 xmlns:xodm="http://www.corel.com/coreldraw/odm/2003">
 <defs>
  <style type="text/css">
   <![CDATA[
    .fil0 {fill:#2B2A29}
    .fil1 {fill:#C40606}
    .fil3 {fill:#FEFEFE}
    .fil2 {fill:#2B2A29;fill-rule:nonzero}
   ]]>
  </style>
 </defs>
 <g id="Layer_x0020_1">
  <metadata id="CorelCorpID_0Corel-Layer"/>
  <g id="_2613981034192">
   <g id="_1460263231888">
    <polygon class="fil0" points="7177.68,1262.93 7177.68,517.25 7781.85,517.25 7781.85,55.26 6028.63,55.26 6028.63,517.25 6632.77,517.25 6632.77,1262.93 "/>
    <polygon class="fil1" points="7177.68,1950.6 7177.68,1405.74 6632.77,1405.74 6632.77,1950.6 "/>
    <path class="fil2" d="M7920.04 1002.94c0,663.36 497.52,1002.94 1046.38,1002.94 552.8,0 1046.38,-339.58 1046.38,-1002.94 0,-663.36 -493.58,-1002.94 -1046.38,-1002.94 -548.86,0 -1046.38,339.58 -1046.38,1002.94zm1536 0c0,292.2 -173.74,513.32 -489.62,513.32 -311.94,0 -485.68,-221.12 -485.68,-513.32 0,-292.2 173.74,-513.32 485.68,-513.32 315.89,0 489.62,221.12 489.62,513.32z"/>
    <path class="fil2" d="M12038.46 1950.61l0 -1895.33 -544.9 0 0 860.8c-102.67,43.43 -209.28,59.23 -335.64,59.23 -201.38,0 -339.58,-71.07 -339.58,-296.15l0 -623.88 -548.86 0 0 675.22c0,489.62 331.68,706.8 738.39,706.8 189.54,0 335.63,-23.69 485.68,-78.97l0 592.29 544.9 0z"/>
    <polygon class="fil2" points="13053.28,1950.61 13053.28,1231.96 13819.31,1231.96 13819.31,1950.61 14368.17,1950.61 14368.17,55.28 13819.31,55.28 13819.31,773.93 13053.28,773.93 13053.28,55.28 12504.42,55.28 12504.42,1950.61 "/>
    <path class="fil2" d="M15821.27 1950.61c497.52,0 766.03,-288.25 766.03,-651.52 0,-363.27 -268.51,-651.52 -766.03,-651.52l-438.29 0 0 -592.29 -548.86 0 0 1895.33 987.15 0zm-442.25 -908.18l308 0c217.17,0 335.63,94.76 335.63,256.65 0,161.9 -118.45,256.66 -335.63,256.66l-308 0 0 -513.32zm2065.13 908.18l0 -1895.33 -548.86 0 0 1895.33 548.86 0z"/>
    <path class="fil2" d="M17803.53 1002.94c0,659.42 497.52,1002.94 1097.71,1002.94 284.29,0 517.26,-43.43 694.96,-118.45l0 -430.4c-161.9,71.07 -355.38,114.51 -572.55,114.51 -311.94,0 -604.14,-114.51 -667.32,-390.91l1334.64 0c126.35,-560.7 -126.36,-1180.63 -912.13,-1180.63 -426.45,0 -975.31,288.25 -975.31,1002.94zm1393.86 -177.68l-845 0c7.9,-260.61 213.22,-406.71 446.19,-406.71 343.52,0 418.55,276.4 398.81,406.71z"/>
    <polygon class="fil2" points="6578.47,4283.23 6578.47,3294.27 6973.36,3919.79 7214.48,3919.79 7609.38,3294.27 7609.38,4283.23 8077.65,4283.23 8077.65,2605.83 7616.36,2605.83 7092.17,3437.55 6571.48,2605.83 6106.7,2605.83 6106.7,4283.23 "/>
    <path class="fil2" d="M9989.22 3849.9l0 -534.67c0,-552.14 -321.51,-758.32 -824.72,-758.32 -258.6,0 -513.7,66.4 -649.99,111.82l0 419.35c157.25,-62.9 363.43,-125.8 594.08,-125.8 262.09,0 394.89,115.32 394.89,283.05l0 59.42c-118.81,-27.96 -265.59,-45.44 -398.38,-45.44 -335.48,0 -737.36,132.79 -737.36,559.14 0,331.98 272.58,513.7 587.09,513.7 248.11,0 440.31,-76.88 604.56,-206.18 69.89,125.8 199.19,188.72 370.43,188.72 94.35,0 192.2,-20.97 269.07,-48.93l0 -318c-31.45,10.49 -62.9,13.98 -90.85,13.98 -62.9,0 -118.81,-24.47 -118.81,-111.83zm-772.31 -300.53c101.35,0 213.17,20.97 286.56,38.44l0 262.09c-111.82,97.85 -241.13,136.29 -377.42,136.29 -146.76,0 -262.09,-80.37 -262.09,-206.18 0,-171.23 174.73,-230.64 352.96,-230.64z"/>
    <polygon class="fil2" points="12889.75,4283.23 12889.75,2605.83 12407.5,2605.83 12407.5,3874.37 11914.76,3874.37 11914.76,2605.83 11432.51,2605.83 11432.51,3874.37 10943.27,3874.37 10943.27,2605.83 10457.52,2605.83 10457.52,4283.23 "/>
    <polygon class="fil1" points="14472.85,3833.54 14472.85,4283.23 14955.12,4283.23 14955.12,3833.54 "/>
    <polygon class="fil0" points="13725,4283.23 14472.85,3339.68 14472.85,3716.85 14955.12,3716.85 14955.12,2605.81 14535.76,2605.81 13787.91,3549.36 13787.91,2605.81 13302.16,2605.81 13302.16,4283.23 "/>
    <polygon class="fil2" points="15853.25,4283.23 15853.25,3647.21 16531.2,3647.21 16531.2,4283.23 17016.94,4283.23 17016.94,2605.83 16531.2,2605.83 16531.2,3241.85 15853.25,3241.85 15853.25,2605.83 15367.5,2605.83 15367.5,4283.23 "/>
    <path class="fil2" d="M18302.97 4283.23c440.31,0 677.95,-255.1 677.95,-576.6 0,-321.51 -237.64,-576.61 -677.95,-576.61l-387.9 0 0 -524.19 -485.75 0 0 1677.4 873.65 0zm-391.39 -803.75l272.58 0c192.2,0 297.03,83.87 297.03,227.15 0,143.27 -104.83,227.14 -297.03,227.14l-272.58 0 0 -454.29zm1827.67 803.75l0 -1677.4 -485.75 0 0 1677.4 485.75 0z"/>
    <path class="fil1" d="M1184.87 4268.21l0 -2176.57 148.74 -4.32c-121.93,-603.79 106.94,-1097.72 659.51,-1363.08 9.97,-5.31 19.99,-10.32 30.19,-14.61l-855.96 -654.36 -1167.34 0 0 4212.95 1184.87 0z"/>
    <path class="fil1" d="M3752.22 4268.21l0 -2176.57 -148.74 -4.32c121.93,-603.79 -106.94,-1097.72 -659.51,-1363.08 -9.97,-5.31 -19.99,-10.32 -30.19,-14.61l855.96 -654.36 1167.34 0 0 4212.95 -1184.87 0z"/>
    <path class="fil1" d="M2503.07 4240.25l-27.95 27.98 -27.8 -27.83c-8.14,-7.37 -620.99,-1517.45 -861.06,-1947 -54.23,-91.81 -92.61,-196.1 -110.82,-331.16 -7.59,-50 -11.32,-99.82 -11.42,-149.15l-0.09 -2.09 0.09 0c-0.18,-320.15 152.72,-618.55 404.68,-805.59 168.56,-127.69 378.62,-203.48 606.43,-203.48 228.08,0 438.39,76 607.09,203.96 251.57,187.07 404.16,485.19 404.01,805.1l0.06 0 -0.06 2.09c-0.13,49.32 -3.84,99.15 -11.42,149.15 -18.21,135.07 -56.59,239.36 -110.82,331.16 -240.31,429.83 -852.32,1939.06 -860.91,1946.85z"/>
    <path class="fil3" d="M2475.12 1315.64c277.77,0 502.98,225.21 502.98,502.98 0,277.77 -225.21,502.98 -502.98,502.98 -277.77,0 -502.97,-225.21 -502.97,-502.98 0,-277.77 225.2,-502.98 502.97,-502.98z"/>
   </g>
  </g>
 </g>
</svg>
